<?xml version="1.0" encoding="UTF-8" standalone="no"?>
<svg width="190px" height="95px" viewBox="0 0 190 95" version="1.1" xmlns="http://www.w3.org/2000/svg" xmlns:xlink="http://www.w3.org/1999/xlink">
    <!-- Generator: Sketch 3.6.1 (26313) - http://www.bohemiancoding.com/sketch -->
    <title>witt-logo</title>
    <desc>Created with Sketch.</desc>
    <defs></defs>
    <g id="Page-1" stroke="none" stroke-width="1" fill="none" fill-rule="evenodd">
        <g id="witt-logo">
            <path d="M0,94.9045815 L189.808326,94.9045815 L189.808326,0 L0,0 L0,94.9045815 Z" id="Fill-1" fill="#D30228"></path>
            <path d="M129.729573,32.1824009 L123.4127,32.1824009 L123.4127,61.4147797 L108.395167,61.4147797 L108.395167,32.1824009 L102.195476,32.1824009 L102.196313,19.6934581 L129.716181,19.6934581 L129.729573,32.1824009 Z" id="Fill-2" fill="#FEFEFE"></path>
            <path d="M84.2321894,19.7233392 L98.8839515,19.7233392 L98.976859,61.4438238 L84.2681806,61.4312687 L84.2321894,19.7233392 Z" id="Fill-3" fill="#FEFEFE"></path>
            <path d="M160.683167,32.2527093 L154.346207,32.2527093 L154.343696,61.4834141 L139.344577,61.4834141 L139.344577,32.2527093 L133.144885,32.2527093 L133.168322,19.6968062 L160.664753,19.6867621 L160.683167,32.2527093 Z" id="Fill-4" fill="#FEFEFE"></path>
            <path d="M54.2908678,51.0272203 C54.2908678,51.0272203 53.4747885,61.6965154 41.7701189,61.6965154 C30.0637753,61.6965154 30.2646564,48.6342247 30.2680044,48.6049295 C30.2763744,48.5789824 30.2680044,19.7701278 30.2680044,19.7701278 L43.9421454,19.7701278 L43.9421454,41.4225947 C43.9421454,42.7710088 45.6404273,42.7910969 46.2807357,42.7910969 C46.9210441,42.7910969 48.618489,42.7710088 48.618489,41.4225947 L48.618489,19.7701278 L54.5838194,19.7701278 L60.6085771,19.7701278 L60.6085771,41.4225947 C60.6085771,42.7710088 62.298489,42.7710088 62.9772996,42.7710088 C63.6594581,42.7710088 65.345185,42.7710088 65.345185,41.4225947 L65.345185,19.7701278 L78.9565507,19.7701278 C78.9565507,19.7701278 78.9532026,48.5789824 78.9565507,48.6049295 C78.9615727,48.6342247 79.1624537,61.6965154 67.4594581,61.6965154 C55.7522775,61.6965154 54.6214846,51.0272203 54.6214846,51.0272203 L54.2908678,51.0272203 L54.2908678,51.0272203 Z" id="Fill-5" fill="#FEFEFE"></path>
            <path d="M54.2908678,51.0272203 C54.2908678,51.0272203 53.4747885,61.6965154 41.7701189,61.6965154 C30.0637753,61.6965154 30.2646564,48.6342247 30.2680044,48.6049295 C30.2763744,48.5789824 30.2680044,19.7701278 30.2680044,19.7701278 L43.9421454,19.7701278 L43.9421454,41.4225947 C43.9421454,42.7710088 45.6404273,42.7910969 46.2807357,42.7910969 C46.9210441,42.7910969 48.618489,42.7710088 48.618489,41.4225947 L48.618489,19.7701278 L54.5838194,19.7701278 L60.6085771,19.7701278 L60.6085771,41.4225947 C60.6085771,42.7710088 62.298489,42.7710088 62.9772996,42.7710088 C63.6594581,42.7710088 65.345185,42.7710088 65.345185,41.4225947 L65.345185,19.7701278 L78.9565507,19.7701278 C78.9565507,19.7701278 78.9532026,48.5789824 78.9565507,48.6049295 C78.9615727,48.6342247 79.1624537,61.6965154 67.4594581,61.6965154 C55.7522775,61.6965154 54.6214846,51.0272203 54.6214846,51.0272203 L54.2908678,51.0272203 L54.2908678,51.0272203 Z" id="Stroke-7" stroke="#FEFEFE" stroke-width="0.14"></path>
            <path d="M61.3559383,69.8205639 L64.1314449,69.8205639 L66.3595507,76.7677004 L66.3988899,76.7677004 L68.4319736,69.8205639 L71.4803436,69.8205639 L73.6691101,76.7677004 L73.7084493,76.7677004 L75.8001233,69.8205639 L78.3019295,69.8205639 L75.2142203,79.2100793 L72.125674,79.2100793 L69.9369075,72.0453216 L69.8975683,72.0453216 L67.747304,79.2100793 L64.7566872,79.2100793 L61.3559383,69.8205639 Z" id="Fill-9" fill="#FEFEFE"></path>
            <path d="M86.6622643,73.5944493 C86.5844229,72.4100881 85.9985198,71.3889427 84.5320881,71.3889427 C83.0664934,71.3889427 82.3232335,72.3372687 82.2060529,73.5944493 L86.6622643,73.5944493 Z M88.4216476,78.6817621 C87.4641145,79.1730837 86.3693128,79.42837 84.9614714,79.42837 C81.6394009,79.42837 79.7042467,77.6422026 79.7042467,74.5611894 C79.7042467,71.8442731 81.2485198,69.6019383 84.3755683,69.6019383 C88.1094449,69.6019383 89.1640705,71.9907489 89.1640705,75.2718062 L82.2060529,75.2718062 C82.3232335,76.7851101 83.4565374,77.6422026 85.079489,77.6422026 C86.3500617,77.6422026 87.4440264,77.2044493 88.4216476,76.6938767 L88.4216476,78.6817621 Z" id="Fill-11" fill="#FEFEFE"></path>
            <path d="M91.760793,79.2099119 L94.3797797,79.2099119 L94.3797797,69.8203965 L91.760793,69.8203965 L91.760793,79.2099119 Z M91.760793,68.1070485 L94.3797797,68.1070485 L94.3797797,65.7734802 L91.760793,65.7734802 L91.760793,68.1070485 Z" id="Fill-13" fill="#FEFEFE"></path>
            <path d="M101.921189,77.5326388 C103.661322,77.5326388 104.229648,75.8184537 104.229648,74.4876167 C104.229648,73.1751938 103.564229,71.497837 101.882687,71.497837 C100.181894,71.497837 99.7123348,73.2304361 99.7123348,74.4876167 C99.7123348,75.7824626 100.201145,77.5326388 101.921189,77.5326388 L101.921189,77.5326388 Z M104.325903,78.152022 L104.287401,78.152022 C103.506476,79.0643568 102.429251,79.4284537 101.198018,79.4284537 C98.1111454,79.4284537 96.9770044,77.0588943 96.9770044,74.4876167 C96.9770044,71.8995991 98.1111454,69.602022 101.198018,69.602022 C102.508767,69.602022 103.42696,70.0213612 104.207885,70.9152819 L104.248062,70.9152819 L104.248062,65.5375286 L106.867048,65.5375286 L106.867048,79.2099956 L104.325903,79.2099956 L104.325903,78.152022 Z" id="Fill-15" fill="#FEFEFE"></path>
            <path d="M116.36278,73.5944493 C116.284938,72.4100881 115.697361,71.3889427 114.231767,71.3889427 C112.765335,71.3889427 112.023749,72.3372687 111.906568,73.5944493 L116.36278,73.5944493 Z M118.122163,78.6817621 C117.163793,79.1730837 116.069828,79.42837 114.661987,79.42837 C111.339916,79.42837 109.404762,77.6422026 109.404762,74.5611894 C109.404762,71.8442731 110.948198,69.6019383 114.076921,69.6019383 C117.80996,69.6019383 118.864586,71.9907489 118.864586,75.2718062 L111.906568,75.2718062 C112.023749,76.7851101 113.157053,77.6422026 114.780004,77.6422026 C116.050577,77.6422026 117.144542,77.2044493 118.122163,76.6938767 L118.122163,78.6817621 Z" id="Fill-16" fill="#FEFEFE"></path>
            <path d="M121.402048,69.8205639 L123.884604,69.8205639 L123.884604,71.0969956 L123.923943,71.0969956 C124.744207,70.0214449 125.859097,69.6021057 127.226762,69.6021057 C129.612225,69.6021057 130.647599,71.169815 130.647599,73.2849251 L130.647599,79.2100793 L128.029449,79.2100793 L128.029449,74.1972599 C128.029449,73.0472159 128.010198,71.4979207 126.328656,71.4979207 C124.431167,71.4979207 124.022709,73.4121498 124.022709,74.6157621 L124.022709,79.2100793 L121.402048,79.2100793 L121.402048,69.8205639 Z" id="Fill-17" fill="#FEFEFE"></path>
        </g>
    </g>
</svg>